<?xml version="1.0" encoding="UTF-8" standalone="no"?>
<!DOCTYPE svg PUBLIC "-//W3C//DTD SVG 1.1//EN"
 "http://www.w3.org/Graphics/SVG/1.1/DTD/svg11.dtd">
<!-- Generated by graphviz version 2.40.1 (20161225.0304)
 -->
<!-- Title: %3 Pages: 1 -->
<svg width="81pt" height="218pt"
 viewBox="0.00 0.00 80.85 217.93" xmlns="http://www.w3.org/2000/svg" xmlns:xlink="http://www.w3.org/1999/xlink">
<g id="graph0" class="graph" transform="scale(1 1) rotate(0) translate(4 213.9325)">
<title>%3</title>
<polygon fill="#ffffff" stroke="transparent" points="-4,4 -4,-213.9325 76.8493,-213.9325 76.8493,4 -4,4"/>
<!-- A -->
<g id="node1" class="node">
<title>A</title>
<polygon fill="#d3d3d3" stroke="#000000" points="24.9298,-209.9325 1.9194,-209.9325 1.9194,-192.9325 24.9298,-192.9325 24.9298,-209.9325"/>
<text text-anchor="middle" x="13.4246" y="-198.7325" font-family="Times,serif" font-size="9.00" fill="#000000">A</text>
</g>
<!-- A XOR B -->
<g id="node3" class="node">
<title>A XOR B</title>
<ellipse fill="#add8e6" stroke="#000000" cx="36.4246" cy="-36.4246" rx="36.3494" ry="36.3494"/>
<text text-anchor="middle" x="36.4246" y="-33.7246" font-family="Times,serif" font-size="9.00" fill="#000000">A XOR B</text>
</g>
<!-- A&#45;&gt;A XOR B -->
<g id="edge4" class="edge">
<title>A&#45;&gt;A XOR B</title>
<path fill="none" stroke="#00ff00" stroke-width=".5709" d="M10.6274,-192.654C5.7571,-176.0944 -3.1605,-139.1833 3.4246,-108.8493 5.7127,-98.3096 9.6733,-87.4641 14.0738,-77.4791"/>
<polygon fill="#00ff00" stroke="#00ff00" stroke-width=".5709" points="17.3424,-78.7508 18.3875,-68.2076 10.9957,-75.7979 17.3424,-78.7508"/>
</g>
<!-- 2547 -->
<g id="node4" class="node">
<title>2547</title>
<ellipse fill="#ffffff" stroke="#000000" cx="36.4246" cy="-132.8909" rx="24.0833" ry="24.0833"/>
<text text-anchor="middle" x="36.4246" y="-130.1909" font-family="Times,serif" font-size="9.00" fill="#000000">2547</text>
</g>
<!-- A&#45;&gt;2547 -->
<g id="edge1" class="edge">
<title>A&#45;&gt;2547</title>
<path fill="none" stroke="#ff0000" stroke-width=".5689" d="M16.3376,-192.7517C18.6826,-185.7633 22.1345,-175.4766 25.5177,-165.3944"/>
<polygon fill="#ff0000" stroke="#ff0000" stroke-width=".5689" points="28.8388,-166.4989 28.702,-155.9049 22.2025,-164.2719 28.8388,-166.4989"/>
</g>
<!-- B -->
<g id="node2" class="node">
<title>B</title>
<polygon fill="#d3d3d3" stroke="#000000" points="70.4276,-209.9325 48.4217,-209.9325 48.4217,-192.9325 70.4276,-192.9325 70.4276,-209.9325"/>
<text text-anchor="middle" x="59.4246" y="-198.7325" font-family="Times,serif" font-size="9.00" fill="#000000">B</text>
</g>
<!-- B&#45;&gt;A XOR B -->
<g id="edge5" class="edge">
<title>B&#45;&gt;A XOR B</title>
<path fill="none" stroke="#00ff00" stroke-width=".2324" d="M62.2218,-192.654C67.0922,-176.0944 76.0097,-139.1833 69.4246,-108.8493 67.1366,-98.3096 63.176,-87.4641 58.7754,-77.4791"/>
<polygon fill="#00ff00" stroke="#00ff00" stroke-width=".2324" points="61.8536,-75.7979 54.4618,-68.2076 55.5069,-78.7508 61.8536,-75.7979"/>
</g>
<!-- B&#45;&gt;2547 -->
<g id="edge3" class="edge">
<title>B&#45;&gt;2547</title>
<path fill="none" stroke="#ff0000" stroke-width=".6767" d="M56.5117,-192.7517C54.1666,-185.7633 50.7148,-175.4766 47.3316,-165.3944"/>
<polygon fill="#ff0000" stroke="#ff0000" stroke-width=".6767" points="50.6468,-164.2719 44.1473,-155.9049 44.0105,-166.4989 50.6468,-164.2719"/>
</g>
<!-- 2547&#45;&gt;A XOR B -->
<g id="edge2" class="edge">
<title>2547&#45;&gt;A XOR B</title>
<path fill="none" stroke="#00ff00" stroke-width="1.4349" d="M36.4246,-108.5484C36.4246,-100.8459 36.4246,-92.056 36.4246,-83.3243"/>
<polygon fill="#00ff00" stroke="#00ff00" stroke-width="1.4349" points="39.9247,-83.1695 36.4246,-73.1696 32.9247,-83.1696 39.9247,-83.1695"/>
</g>
</g>
</svg>
