<?xml version="1.0" encoding="UTF-8" standalone="no"?>
<!DOCTYPE svg PUBLIC "-//W3C//DTD SVG 1.1//EN"
 "http://www.w3.org/Graphics/SVG/1.1/DTD/svg11.dtd">
<!-- Generated by graphviz version 2.40.1 (20161225.0304)
 -->
<!-- Title: %3 Pages: 1 -->
<svg width="286pt" height="262pt"
 viewBox="0.00 0.00 286.00 262.37" xmlns="http://www.w3.org/2000/svg" xmlns:xlink="http://www.w3.org/1999/xlink">
<g id="graph0" class="graph" transform="scale(1 1) rotate(0) translate(4 258.3715)">
<title>%3</title>
<polygon fill="#ffffff" stroke="transparent" points="-4,4 -4,-258.3715 281.9971,-258.3715 281.9971,4 -4,4"/>
<!-- In0 -->
<g id="node1" class="node">
<title>In0</title>
<polygon fill="#d3d3d3" stroke="#000000" points="27.9956,-189.0119 .0015,-189.0119 .0015,-172.0119 27.9956,-172.0119 27.9956,-189.0119"/>
<text text-anchor="middle" x="13.9985" y="-177.8119" font-family="Times,serif" font-size="9.00" fill="#000000">In0</text>
</g>
<!-- act2 -->
<g id="node6" class="node">
<title>act2</title>
<ellipse fill="#add8e6" stroke="#000000" cx="80.9985" cy="-101.7392" rx="21.8265" ry="21.8265"/>
<text text-anchor="middle" x="80.9985" y="-99.0392" font-family="Times,serif" font-size="9.00" fill="#000000">act2</text>
</g>
<!-- In0&#45;&gt;act2 -->
<g id="edge1" class="edge">
<title>In0&#45;&gt;act2</title>
<path fill="none" stroke="#00ff00" stroke-width=".2144" stroke-dasharray="1,5" d="M21.4247,-171.7809C30.709,-160.8652 46.9858,-141.7284 60.182,-126.2135"/>
<polygon fill="#00ff00" stroke="#00ff00" stroke-width=".2144" points="62.9357,-128.378 66.7486,-118.493 57.6035,-123.8428 62.9357,-128.378"/>
</g>
<!-- In1 -->
<g id="node2" class="node">
<title>In1</title>
<polygon fill="#d3d3d3" stroke="#000000" points="73.9956,-189.0119 46.0015,-189.0119 46.0015,-172.0119 73.9956,-172.0119 73.9956,-189.0119"/>
<text text-anchor="middle" x="59.9985" y="-177.8119" font-family="Times,serif" font-size="9.00" fill="#000000">In1</text>
</g>
<!-- In1&#45;&gt;act2 -->
<g id="edge2" class="edge">
<title>In1&#45;&gt;act2</title>
<path fill="none" stroke="#00ff00" stroke-width=".2573" d="M62.3261,-171.7809C64.8354,-162.3686 68.9741,-146.8438 72.7182,-132.7992"/>
<polygon fill="#00ff00" stroke="#00ff00" stroke-width=".2573" points="76.1518,-133.5069 75.3459,-122.9427 69.388,-131.7037 76.1518,-133.5069"/>
</g>
<!-- In3 -->
<g id="node3" class="node">
<title>In3</title>
<polygon fill="#d3d3d3" stroke="#000000" points="277.9956,-110.2392 250.0015,-110.2392 250.0015,-93.2392 277.9956,-93.2392 277.9956,-110.2392"/>
<text text-anchor="middle" x="263.9985" y="-99.0392" font-family="Times,serif" font-size="9.00" fill="#000000">In3</text>
</g>
<!-- act1 -->
<g id="node5" class="node">
<title>act1</title>
<ellipse fill="#add8e6" stroke="#000000" cx="236.9985" cy="-21.9131" rx="21.8265" ry="21.8265"/>
<text text-anchor="middle" x="236.9985" y="-19.2131" font-family="Times,serif" font-size="9.00" fill="#000000">act1</text>
</g>
<!-- In3&#45;&gt;act1 -->
<g id="edge3" class="edge">
<title>In3&#45;&gt;act1</title>
<path fill="none" stroke="#ff0000" stroke-width=".3441" d="M261.1091,-93.1964C257.8373,-83.5233 252.3194,-67.2095 247.3874,-52.6279"/>
<polygon fill="#ff0000" stroke="#ff0000" stroke-width=".3441" points="250.6209,-51.2639 244.1013,-42.9125 243.9899,-53.5068 250.6209,-51.2639"/>
</g>
<!-- In4 -->
<g id="node4" class="node">
<title>In4</title>
<polygon fill="#d3d3d3" stroke="#000000" points="194.9956,-254.3715 167.0015,-254.3715 167.0015,-237.3715 194.9956,-237.3715 194.9956,-254.3715"/>
<text text-anchor="middle" x="180.9985" y="-243.1715" font-family="Times,serif" font-size="9.00" fill="#000000">In4</text>
</g>
<!-- In4&#45;&gt;act2 -->
<g id="edge4" class="edge">
<title>In4&#45;&gt;act2</title>
<path fill="none" stroke="#00ff00" stroke-width=".5812" d="M166.8557,-238.4326C153.438,-230.7429 133.5167,-217.5941 120.9985,-201.3715 105.3415,-181.0812 94.964,-153.8445 88.7116,-132.9769"/>
<polygon fill="#00ff00" stroke="#00ff00" stroke-width=".5812" points="92.0638,-131.9687 85.9686,-123.3027 85.3293,-133.8783 92.0638,-131.9687"/>
</g>
<!-- 520 -->
<g id="node7" class="node">
<title>520</title>
<ellipse fill="#ffffff" stroke="#000000" cx="210.9985" cy="-180.5119" rx="20.7202" ry="20.7202"/>
<text text-anchor="middle" x="210.9985" y="-177.8119" font-family="Times,serif" font-size="9.00" fill="#000000">520</text>
</g>
<!-- In4&#45;&gt;520 -->
<g id="edge9" class="edge">
<title>In4&#45;&gt;520</title>
<path fill="none" stroke="#ff0000" stroke-width=".1242" d="M184.9205,-237.3269C188.2767,-230.015 193.3046,-219.0608 198.0527,-208.7165"/>
<polygon fill="#ff0000" stroke="#ff0000" stroke-width=".1242" points="201.2878,-210.0583 202.2785,-199.5099 194.9259,-207.1382 201.2878,-210.0583"/>
</g>
<!-- 215 -->
<g id="node8" class="node">
<title>215</title>
<ellipse fill="#ffffff" stroke="#000000" cx="210.9985" cy="-101.7392" rx="20.7202" ry="20.7202"/>
<text text-anchor="middle" x="210.9985" y="-99.0392" font-family="Times,serif" font-size="9.00" fill="#000000">215</text>
</g>
<!-- In4&#45;&gt;215 -->
<g id="edge5" class="edge">
<title>In4&#45;&gt;215</title>
<path fill="none" stroke="#ff0000" stroke-width=".2599" stroke-dasharray="1,5" d="M195.2375,-239.9959C209.7683,-233.1314 231.4941,-220.2538 240.9985,-201.3715 253.0259,-177.477 241.1,-147.8879 228.9084,-127.1879"/>
<polygon fill="#ff0000" stroke="#ff0000" stroke-width=".2599" points="231.8256,-125.2516 223.5553,-118.6295 225.8909,-128.9637 231.8256,-125.2516"/>
</g>
<!-- 442 -->
<g id="node9" class="node">
<title>442</title>
<ellipse fill="#ffffff" stroke="#000000" cx="150.9985" cy="-180.5119" rx="20.7202" ry="20.7202"/>
<text text-anchor="middle" x="150.9985" y="-177.8119" font-family="Times,serif" font-size="9.00" fill="#000000">442</text>
</g>
<!-- In4&#45;&gt;442 -->
<g id="edge7" class="edge">
<title>In4&#45;&gt;442</title>
<path fill="none" stroke="#00ff00" stroke-width=".2482" d="M177.0766,-237.3269C173.7204,-230.015 168.6925,-219.0608 163.9444,-208.7165"/>
<polygon fill="#00ff00" stroke="#00ff00" stroke-width=".2482" points="167.0711,-207.1382 159.7186,-199.5099 160.7093,-210.0583 167.0711,-207.1382"/>
</g>
<!-- 520&#45;&gt;215 -->
<g id="edge10" class="edge">
<title>520&#45;&gt;215</title>
<path fill="none" stroke="#ff0000" stroke-width=".2744" d="M210.9985,-159.4022C210.9985,-151.2133 210.9985,-141.67 210.9985,-132.7316"/>
<polygon fill="#ff0000" stroke="#ff0000" stroke-width=".2744" points="214.4986,-132.6339 210.9985,-122.6339 207.4986,-132.634 214.4986,-132.6339"/>
</g>
<!-- 215&#45;&gt;act1 -->
<g id="edge6" class="edge">
<title>215&#45;&gt;act1</title>
<path fill="none" stroke="#00ff00" stroke-width=".2996" stroke-dasharray="1,5" d="M217.5594,-81.5957C220.4177,-72.8201 223.8316,-62.3387 226.9951,-52.6261"/>
<polygon fill="#00ff00" stroke="#00ff00" stroke-width=".2996" points="230.3983,-53.4788 230.1673,-42.8864 223.7424,-51.3108 230.3983,-53.4788"/>
</g>
<!-- 442&#45;&gt;act2 -->
<g id="edge11" class="edge">
<title>442&#45;&gt;act2</title>
<path fill="none" stroke="#ff0000" stroke-width=".215" d="M136.833,-164.5711C127.0016,-153.5076 113.722,-138.5637 102.5802,-126.0255"/>
<polygon fill="#ff0000" stroke="#ff0000" stroke-width=".215" points="104.8838,-123.3487 95.6249,-118.1986 99.6512,-127.9985 104.8838,-123.3487"/>
</g>
<!-- 442&#45;&gt;215 -->
<g id="edge8" class="edge">
<title>442&#45;&gt;215</title>
<path fill="none" stroke="#00ff00" stroke-width=".2065" d="M163.723,-163.8062C171.996,-152.9447 182.928,-138.5924 192.1955,-126.4253"/>
<polygon fill="#00ff00" stroke="#00ff00" stroke-width=".2065" points="195.0174,-128.4967 198.2924,-118.4208 189.4487,-124.2552 195.0174,-128.4967"/>
</g>
</g>
</svg>
